<svg xmlns="http://www.w3.org/2000/svg" xmlns:xlink="http://www.w3.org/1999/xlink" contentStyleType="text/css" data-diagram-type="DESCRIPTION" height="574px" preserveAspectRatio="none" style="width:1008px;height:574px;background:#FAFAFA;" version="1.1" viewBox="0 0 1008 574" width="1008px" zoomAndPan="magnify"><?plantuml $version$?><defs/><g><rect fill="#FAFAFA" height="574" style="stroke:none;stroke-width:1;" width="1008" x="0" y="0"/><g class="title" data-source-line="16"><text fill="#000000" font-family="sans-serif" font-size="14" font-weight="700" lengthAdjust="spacing" textLength="377.4931" x="311.8635" y="24.9659">Earley Chart &#8212; predict &#183; scan &#183; complete &#8594; token mask</text></g><!--cluster complete_chart(i) ? closure over states (rule, dot, start)--><g class="cluster" data-qualified-name="complete_chart.i. . closure over states .rule. dot. start." data-source-line="20" id="ent0002"><path d="M8.5,46.6699 L398.9506,46.6699 A3.75,3.75 0 0 1 401.4506,49.1699 L408.4506,71.7378 L408.5,71.7378 A2.5,2.5 0 0 1 411,74.2378 L411,312.5799 A2.5,2.5 0 0 1 408.5,315.0799 L8.5,315.0799 A2.5,2.5 0 0 1 6,312.5799 L6,49.1699 A2.5,2.5 0 0 1 8.5,46.6699" fill="none" style="stroke:#000000;stroke-width:1.5;"/><line style="stroke:#000000;stroke-width:1.5;" x1="6" x2="408.4506" y1="71.7378" y2="71.7378"/><text fill="#000000" font-family="sans-serif" font-size="14" font-weight="700" lengthAdjust="spacing" textLength="389.4506" x="10" y="63.6358">complete_chart(i) &#8212; closure over states (rule, dot, start)</text></g><!--entity pred--><g class="entity" data-qualified-name="complete_chart.i. . closure over states .rule. dot. start..pred" data-source-line="21" id="ent0003"><rect fill="#EF6C00" height="77.2038" rx="6" ry="6" style="stroke:#263238;stroke-width:0.5;" width="221.1367" x="140.43" y="84.6699"/><text fill="#FFFFFF" font-family="sans-serif" font-size="14" font-weight="700" lengthAdjust="spacing" textLength="49.6438" x="226.1764" y="109.6358">Predict</text><text fill="#FFFFFF" font-family="sans-serif" font-size="14" font-weight="700" lengthAdjust="spacing" textLength="201.1367" x="150.43" y="128.7038">dot before &#10216;NT&#10217; &#8658; add (r, 0, i)</text><text fill="#FFFFFF" font-family="sans-serif" font-size="14" font-weight="700" lengthAdjust="spacing" textLength="145.3615" x="178.3176" y="147.7717">for every rule r of NT</text></g><!--entity comp--><g class="entity" data-qualified-name="complete_chart.i. . closure over states .rule. dot. start..comp" data-source-line="22" id="ent0004"><rect fill="#EF6C00" height="77.2038" rx="6" ry="6" style="stroke:#263238;stroke-width:0.5;" width="209.9358" x="143.03" y="221.8699"/><text fill="#FFFFFF" font-family="sans-serif" font-size="14" font-weight="700" lengthAdjust="spacing" textLength="67.1997" x="214.398" y="246.8358">Complete</text><text fill="#FFFFFF" font-family="sans-serif" font-size="14" font-weight="700" lengthAdjust="spacing" textLength="189.9358" x="153.03" y="265.9038">dot at end of NT &#8658; advance</text><text fill="#FFFFFF" font-family="sans-serif" font-size="14" font-weight="700" lengthAdjust="spacing" textLength="185.3033" x="155.3463" y="284.9717">waiting states at start_pos</text></g><!--entity gc--><g class="entity" data-qualified-name="gc" data-source-line="18" id="ent0001"><rect fill="#EF6C00" height="58.1358" rx="6" ry="6" style="stroke:#263238;stroke-width:0.5;" width="235.9072" x="288.05" y="498.7699"/><text fill="#FFFFFF" font-family="sans-serif" font-size="14" font-weight="700" lengthAdjust="spacing" textLength="140.6715" x="335.6679" y="523.7358">GrammarConstraint</text><text fill="#FFFFFF" font-family="sans-serif" font-size="14" font-weight="700" lengthAdjust="spacing" textLength="215.9072" x="298.05" y="542.8038">chart position i &#183; start symbol S</text></g><!--entity scan--><g class="entity" data-qualified-name="scan" data-source-line="25" id="ent0005"><rect fill="#1565C0" height="77.2038" rx="6" ry="6" style="stroke:#263238;stroke-width:0.5;" width="231.1052" x="459.45" y="359.0799"/><text fill="#FFFFFF" font-family="sans-serif" font-size="14" font-weight="700" lengthAdjust="spacing" textLength="32.4239" x="493.7749" y="384.0458">Scan</text><text fill="#FFFFFF" font-family="sans-serif" font-size="14" font-weight="700" lengthAdjust="spacing" textLength="126.3915" x="529.8388" y="384.0458">&#8212; advance(token)</text><text fill="#FFFFFF" font-family="sans-serif" font-size="14" font-weight="700" lengthAdjust="spacing" textLength="211.1052" x="469.45" y="403.1138">dot before terminal t == token</text><text fill="#FFFFFF" font-family="sans-serif" font-size="14" font-weight="700" lengthAdjust="spacing" textLength="191.5598" x="479.2227" y="422.1817">&#8658; add (r, dot+1, start) at i+1</text></g><!--entity valid--><g class="entity" data-qualified-name="valid" data-source-line="27" id="ent0006"><rect fill="#455A64" height="58.1358" rx="6" ry="6" style="stroke:#263238;stroke-width:0.5;" width="200.4313" x="466.78" y="231.4099"/><text fill="#FFFFFF" font-family="sans-serif" font-size="14" font-weight="700" lengthAdjust="spacing" textLength="96.8236" x="518.5838" y="256.3758">valid_tokens()</text><text fill="#FFFFFF" font-family="sans-serif" font-size="14" font-weight="700" lengthAdjust="spacing" textLength="180.4313" x="476.78" y="275.4438">terminals expected at dot</text></g><!--entity mask--><g class="entity" data-qualified-name="mask" data-source-line="28" id="ent0007"><rect fill="#2E7D32" height="77.2038" rx="6" ry="6" style="stroke:#263238;stroke-width:0.5;" width="156.442" x="725.78" y="359.0799"/><text fill="#FFFFFF" font-family="sans-serif" font-size="14" font-weight="700" lengthAdjust="spacing" textLength="80.2617" x="763.8701" y="384.0458">TokenMask</text><text fill="#FFFFFF" font-family="sans-serif" font-size="14" font-weight="700" lengthAdjust="spacing" textLength="136.442" x="735.78" y="403.1138">allowed ids &#8594; logits</text><text fill="#FFFFFF" font-family="sans-serif" font-size="14" font-weight="700" lengthAdjust="spacing" textLength="113.5382" x="747.2319" y="422.1817">disallowed &#8592; &#8722;&#8734;</text></g><g class="entity" data-qualified-name="GMN16" data-source-line="40" id="ent0017"><path d="M559.24,496.2799 L559.24,559.3979 A0,0 0 0 0 559.24,559.3979 L858.7522,559.3979 A0,0 0 0 0 858.7522,559.3979 L858.7522,506.2799 L848.7522,496.2799 L628.9,496.2799 L624.9,436.7299 L620.9,496.2799 L559.24,496.2799 A0,0 0 0 0 559.24,496.2799" fill="#E3F2FD" style="stroke:#181818;stroke-width:0.5;"/><path d="M848.7522,496.2799 L848.7522,506.2799 L858.7522,506.2799 L848.7522,496.2799" fill="#E3F2FD" style="stroke:#181818;stroke-width:0.5;"/><text fill="#000000" font-family="sans-serif" font-size="13" lengthAdjust="spacing" textLength="261.6252" x="573.6835" y="515.1769">index-based iteration over the per-position</text><text fill="#000000" font-family="sans-serif" font-size="13" lengthAdjust="spacing" textLength="278.5122" x="565.24" y="532.8829">Vec&lt;EarleyState&gt; &#8212; new states are appended</text><text fill="#000000" font-family="sans-serif" font-size="13" lengthAdjust="spacing" textLength="269.5032" x="569.7445" y="550.5889">and processed in the same pass, no cloning.</text></g><!--link gc to pred--><g class="link" data-entity-1="ent0001" data-entity-2="ent0003" data-link-type="dependency" data-source-line="30" id="lnk8"><path d="M355.83,498.4199 C355.83,426.6899 355.83,247.7799 355.83,167.1399" fill="none" id="gc-to-pred" style="stroke:#37474F;stroke-width:1;"/><polygon fill="#37474F" points="355.83,162.1399,351.83,171.1399,355.83,167.1399,359.83,171.1399,355.83,162.1399" style="stroke:#37474F;stroke-width:1;stroke-linejoin:miter;stroke-miterlimit:10;"/></g><!--link pred to comp--><g class="link" data-entity-1="ent0003" data-entity-2="ent0004" data-link-type="dependency" data-source-line="31" id="lnk9"><path d="M213.01,162.2199 C213.01,180.7599 213.01,197.8799 213.01,216.4299" fill="none" id="pred-to-comp" style="stroke:#37474F;stroke-width:1;"/><polygon fill="#37474F" points="213.01,221.4299,217.01,212.4299,213.01,216.4299,209.01,212.4299,213.01,221.4299" style="stroke:#37474F;stroke-width:1;stroke-linejoin:miter;stroke-miterlimit:10;"/></g><!--link comp to pred--><g class="link" data-entity-1="ent0004" data-entity-2="ent0003" data-link-type="dependency" data-source-line="32" id="lnk10"><path d="M282.99,221.5299 C282.99,202.9899 282.99,185.8699 282.99,167.3199" fill="none" id="comp-to-pred" style="stroke:#37474F;stroke-width:1;"/><polygon fill="#37474F" points="282.99,162.3199,278.99,171.3199,282.99,167.3199,286.99,171.3199,282.99,162.3199" style="stroke:#37474F;stroke-width:1;stroke-linejoin:miter;stroke-miterlimit:10;"/><text fill="#000000" font-family="sans-serif" font-size="13" lengthAdjust="spacing" textLength="130.7801" x="151.99" y="187.8169">new states appended</text></g><!--link comp to valid--><g class="link" data-entity-1="ent0004" data-entity-2="ent0006" data-link-type="dependency" data-source-line="33" id="lnk11"><path d="M353.34,270.3999 C389.72,270.3999 425.38,270.3999 461.38,270.3999" fill="none" id="comp-to-valid" style="stroke:#37474F;stroke-width:1;"/><polygon fill="#37474F" points="466.38,270.3999,457.38,266.3999,461.38,270.3999,457.38,274.3999,466.38,270.3999" style="stroke:#37474F;stroke-width:1;stroke-linejoin:miter;stroke-miterlimit:10;"/></g><!--link pred to valid--><g class="link" data-entity-1="ent0003" data-entity-2="ent0006" data-link-type="dependency" data-source-line="34" id="lnk12"><path d="M358.7,162.1099 C358.7,199.4899 358.7,250.3999 358.7,250.3999 C358.7,250.3999 408.25,250.3999 461.51,250.3999" fill="none" id="pred-to-valid" style="stroke:#37474F;stroke-width:1;"/><polygon fill="#37474F" points="466.51,250.3999,457.51,246.3999,461.51,250.3999,457.51,254.3999,466.51,250.3999" style="stroke:#37474F;stroke-width:1;stroke-linejoin:miter;stroke-miterlimit:10;"/></g><!--link valid to scan--><g class="link" data-entity-1="ent0006" data-entity-2="ent0005" data-link-type="dependency" data-source-line="35" id="lnk13"><path d="M567,289.9099 C567,309.9899 567,331.7999 567,353.6599" fill="none" id="valid-to-scan" style="stroke:#37474F;stroke-width:1;"/><polygon fill="#37474F" points="567,358.6599,571,349.6599,567,353.6599,563,349.6599,567,358.6599" style="stroke:#37474F;stroke-width:1;stroke-linejoin:miter;stroke-miterlimit:10;"/><text fill="#000000" font-family="sans-serif" font-size="13" lengthAdjust="spacing" textLength="161.8761" x="405" y="320.1769">model picks allowed token</text></g><!--link scan to gc--><g class="link" data-entity-1="ent0005" data-entity-2="ent0001" data-link-type="dependency" data-source-line="36" id="lnk14"><path d="M491.7,436.7299 C491.7,456.4999 491.7,475.1099 491.7,493.3399" fill="none" id="scan-to-gc" style="stroke:#37474F;stroke-width:1;"/><polygon fill="#37474F" points="491.7,498.3399,495.7,489.3399,491.7,493.3399,487.7,489.3399,491.7,498.3399" style="stroke:#37474F;stroke-width:1;stroke-linejoin:miter;stroke-miterlimit:10;"/><text fill="#000000" font-family="sans-serif" font-size="13" lengthAdjust="spacing" textLength="197.9498" x="293.7" y="463.4269">position &#8592; i+1, cache invalidated</text></g><!--link valid to mask--><g class="link" data-entity-1="ent0006" data-entity-2="ent0007" data-link-type="dependency" data-source-line="37" id="lnk15"><path d="M667.51,260.3999 C732.1,260.3999 804,260.3999 804,260.3999 C804,260.3999 804,313.1199 804,353.7099" fill="none" id="valid-to-mask" style="stroke:#37474F;stroke-width:1;"/><polygon fill="#37474F" points="804,358.7099,808,349.7099,804,353.7099,800,349.7099,804,358.7099" style="stroke:#37474F;stroke-width:1;stroke-linejoin:miter;stroke-miterlimit:10;"/><text fill="#000000" font-family="sans-serif" font-size="13" lengthAdjust="spacing" textLength="206.3102" x="785.91" y="256.2969">DecodingVocabulary.create_mask</text></g><?plantuml-src NLHDRziu4BthLmoIGsFNIkAF98NH5iWwSKyRBDP1Jm42ccHahYbI84TnZA90JzaU5y6Usslt5-ozFyM_f4DAifKWW0EHmpTlthoPLt39d9Phu0lcC2sOyz81NtCjeVHIm9rra3cMvyobt1gFZYb3vq9oAvJ9nb0uAHJ7Nl8AF6Uc1zpcXPOeUu0BQUZU_YKvmZtJIW1Abol3j0Tbq0BR0W7Q9KNdp2yF2UfFQOHqXAwPmJBNaAA_pq1Oxe-4Oe6IFwANzDgvLCOY3WiAfBSpMpekmTu1kX8NiOQfoaedeKzfAv30qXffi88vQXMNDfmESv7ufJ8a2yjXplWoSxOqOc8rGUvFpyDVAy8lcB2hKCmTLIXRDqBUiLBZjNp0SwqoarDYuFGZNIjAKtPS5qJTuSAsBXm9o4n6JVcK04ojmOh2Qg5GrYSpNDFzt6f11xzPH_BLF0Udmy7m3PtMv9sX7lS7oUTMXdFdxAgE7vwDpaRJ11KIOEsFIV07RBxys_GRVluV-nt-Dns7pUDJguz9ikEzr-r-g6mqQOJ6RlV6HDz1ORr2PGse28lXpAzpAWPcUy0yP1psBwUda-FZ92ce3omZo2RjRGGvK9t8ZslhGwljFLL9K2Wz7BXIan-5nLw5tjcBIZxZzqTLM615WJ2Nv1igwVkFg-lDz_zWy_SJC248gmV7FL2T6nEC9IdD6W8-k62vg-j8EAYqfVmYqQJctMHY2EJswd6TvfuPBc_CYf4iPAUw30gCx6z9hvWbAB3Dylc5tZFgJhSRDQa13s9lEi_gQmOI4DwzgvftOzgrKkphVYDReA1UzsFosFtz_idfoUJuHUeuwxSHp1zqGfsxkPSF1OMIEWH5s16gsWtxevEJyzFHSwZh0F8xkIcWCAtjYfuguQFNjCqKUgf7-UPgy_WFRBu-RRv-YyZ1XpG1bsSNmq6Ia8tIz7riJX8x5Bw2Y4bKihc3CHYvsgfU564PYLrCfBi3g3wh6i9t56OCEQqL3ONYIyAesKL9aXWG8edFU6V-G5q5hJdZ2qcRAa8IXpPuB6WC5_MA-cWvcvUQkVKXTv9YRwl9CnR3Ca2qUJ1MrQlBuNGmlI0xAghd8PspiE5fWpWMyyU9ePqDXNHfmugYFqh-jbe3iw38-sYfja1aewr808oyJ4kVIn_XJOJqB2TSvdqFZ0qpQi9-JOBl0zNa5m00?></g></svg>