<svg xmlns="http://www.w3.org/2000/svg" xmlns:xlink="http://www.w3.org/1999/xlink" contentStyleType="text/css" data-diagram-type="DESCRIPTION" height="631px" preserveAspectRatio="none" style="width:1124px;height:631px;background:#FAFAFA;" version="1.1" viewBox="0 0 1124 631" width="1124px" zoomAndPan="magnify"><?plantuml $version$?><defs/><g><rect fill="#FAFAFA" height="631" style="stroke:none;stroke-width:1;" width="1124" x="0" y="0"/><g class="title" data-source-line="16"><text fill="#000000" font-family="sans-serif" font-size="14" font-weight="700" lengthAdjust="spacing" textLength="437.1333" x="339.9809" y="24.9659">Code Correction &#8212; Lexical &#8746; Grammar &#8746; Semantic &#8594; Ensemble</text></g><g class="legend" data-source-line="18"><rect fill="none" height="109.3396" rx="7.5" ry="7.5" style="stroke:#000000;stroke-width:1;" width="288.7529" x="816.3423" y="52.0679"/><text fill="#000000" font-family="sans-serif" font-size="14" font-weight="700" lengthAdjust="spacing" textLength="36.9179" x="824.9823" y="74.0339">Color</text><text fill="#000000" font-family="sans-serif" font-size="14" font-weight="700" lengthAdjust="spacing" textLength="57.3438" x="869.1801" y="74.0339">Concept</text><rect fill="#EF6C00" height="19.0679" style="stroke:none;stroke-width:1;" width="44.1978" x="821.3423" y="78.1358"/><text fill="#000000" font-family="sans-serif" font-size="14" lengthAdjust="spacing" textLength="18.1999" x="821.3423" y="93.1018">&#160;&#160;&#160;&#160;&#160;</text><text fill="#000000" font-family="sans-serif" font-size="14" lengthAdjust="spacing" textLength="133.6435" x="869.1801" y="93.1018">Code / PCFG / Earley</text><rect fill="#2E7D32" height="19.0679" style="stroke:none;stroke-width:1;" width="44.1978" x="821.3423" y="97.2038"/><text fill="#000000" font-family="sans-serif" font-size="14" lengthAdjust="spacing" textLength="18.1999" x="821.3423" y="112.1697">&#160;&#160;&#160;&#160;&#160;</text><text fill="#000000" font-family="sans-serif" font-size="14" lengthAdjust="spacing" textLength="88.3956" x="869.1801" y="112.1697">Neural / GNN</text><rect fill="#546E7A" height="19.0679" style="stroke:none;stroke-width:1;" width="44.1978" x="821.3423" y="116.2717"/><text fill="#000000" font-family="sans-serif" font-size="14" lengthAdjust="spacing" textLength="18.1999" x="821.3423" y="131.2376">&#160;&#160;&#160;&#160;&#160;</text><text fill="#000000" font-family="sans-serif" font-size="14" lengthAdjust="spacing" textLength="227.2751" x="869.1801" y="131.2376">External crate (liblevenshtein) / I-O</text><rect fill="#455A64" height="19.0679" style="stroke:none;stroke-width:1;" width="44.1978" x="821.3423" y="135.3396"/><text fill="#000000" font-family="sans-serif" font-size="14" lengthAdjust="spacing" textLength="18.1999" x="821.3423" y="150.3055">&#160;&#160;&#160;&#160;&#160;</text><text fill="#000000" font-family="sans-serif" font-size="14" lengthAdjust="spacing" textLength="125.9995" x="869.1801" y="150.3055">Aggregated output</text><line style="stroke:#000000;stroke-width:1;" x1="821.3423" x2="1100.0952" y1="59.0679" y2="59.0679"/><line style="stroke:#000000;stroke-width:1;" x1="821.3423" x2="1100.0952" y1="78.1358" y2="78.1358"/><line style="stroke:#000000;stroke-width:1;" x1="821.3423" x2="1100.0952" y1="97.2038" y2="97.2038"/><line style="stroke:#000000;stroke-width:1;" x1="821.3423" x2="1100.0952" y1="116.2717" y2="116.2717"/><line style="stroke:#000000;stroke-width:1;" x1="821.3423" x2="1100.0952" y1="135.3396" y2="135.3396"/><line style="stroke:#000000;stroke-width:1;" x1="821.3423" x2="1100.0952" y1="154.4075" y2="154.4075"/><line style="stroke:#000000;stroke-width:1;" x1="821.3423" x2="821.3423" y1="59.0679" y2="154.4075"/><line style="stroke:#000000;stroke-width:1;" x1="865.5401" x2="865.5401" y1="59.0679" y2="154.4075"/><line style="stroke:#000000;stroke-width:1;" x1="1100.0952" x2="1100.0952" y1="59.0679" y2="154.4075"/></g><!--cluster CodeCorrector implementations--><g class="cluster" data-qualified-name="CodeCorrector implementations" data-source-line="28" id="ent0002"><path d="M244.71,261.5375 L471.1371,261.5375 A3.75,3.75 0 0 1 473.6371,264.0375 L480.6371,286.6054 L903.71,286.6054 A2.5,2.5 0 0 1 906.21,289.1054 L906.21,390.2475 A2.5,2.5 0 0 1 903.71,392.7475 L244.71,392.7475 A2.5,2.5 0 0 1 242.21,390.2475 L242.21,264.0375 A2.5,2.5 0 0 1 244.71,261.5375" fill="none" style="stroke:#000000;stroke-width:1.5;"/><line style="stroke:#000000;stroke-width:1.5;" x1="242.21" x2="480.6371" y1="286.6054" y2="286.6054"/><text fill="#000000" font-family="sans-serif" font-size="14" font-weight="700" lengthAdjust="spacing" textLength="225.4271" x="246.21" y="278.5034">CodeCorrector implementations</text></g><!--entity lex--><g class="entity" data-qualified-name="CodeCorrector implementations.lex" data-source-line="29" id="ent0003"><rect fill="#EF6C00" height="77.2038" rx="6" ry="6" style="stroke:#263238;stroke-width:0.5;" width="184.7514" x="257.83" y="299.5375"/><text fill="#FFFFFF" font-family="sans-serif" font-size="14" font-weight="700" lengthAdjust="spacing" textLength="115.1636" x="292.6239" y="324.5034">LexicalCorrector</text><text fill="#FFFFFF" font-family="sans-serif" font-size="14" font-weight="700" lengthAdjust="spacing" textLength="164.7514" x="267.83" y="343.5714">token-type fuzzy match</text><text fill="#FFFFFF" font-family="sans-serif" font-size="14" font-weight="700" lengthAdjust="spacing" textLength="118.172" x="291.1197" y="362.6393">edit distance &#8804; d</text></g><!--entity gram--><g class="entity" data-qualified-name="CodeCorrector implementations.gram" data-source-line="30" id="ent0004"><rect fill="#EF6C00" height="77.2038" rx="6" ry="6" style="stroke:#263238;stroke-width:0.5;" width="182.9594" x="477.73" y="299.5375"/><text fill="#FFFFFF" font-family="sans-serif" font-size="14" font-weight="700" lengthAdjust="spacing" textLength="133.6435" x="502.3879" y="324.5034">GrammarCorrector</text><text fill="#FFFFFF" font-family="sans-serif" font-size="14" font-weight="700" lengthAdjust="spacing" textLength="93.7996" x="522.3099" y="343.5714">PCFG + Earley</text><text fill="#FFFFFF" font-family="sans-serif" font-size="14" font-weight="700" lengthAdjust="spacing" textLength="162.9594" x="487.73" y="362.6393">insert / delete / replace</text></g><!--entity sem--><g class="entity" data-qualified-name="CodeCorrector implementations.sem" data-source-line="31" id="ent0005"><rect fill="#2E7D32" height="77.2038" rx="6" ry="6" style="stroke:#263238;stroke-width:0.5;" width="194.2013" x="696.11" y="299.5375"/><text fill="#FFFFFF" font-family="sans-serif" font-size="14" font-weight="700" lengthAdjust="spacing" textLength="131.6135" x="718.3652" y="324.5034">SemanticCorrector</text><text fill="#FFFFFF" font-family="sans-serif" font-size="14" font-weight="700" lengthAdjust="spacing" textLength="14.4374" x="853.6187" y="324.5034">&#129000;</text><text fill="#FFFFFF" font-family="sans-serif" font-size="14" font-weight="700" lengthAdjust="spacing" textLength="76.0057" x="755.2078" y="343.5714">CPG + GNN</text><text fill="#FFFFFF" font-family="sans-serif" font-size="14" font-weight="700" lengthAdjust="spacing" textLength="174.2013" x="706.11" y="362.6393">variable misuse / unused</text></g><!--entity src--><g class="entity" data-qualified-name="src" data-source-line="26" id="ent0001"><rect fill="#546E7A" height="58.1358" rx="6" ry="6" style="stroke:#263238;stroke-width:0.5;" width="330.3073" x="404.06" y="181.4075"/><text fill="#FFFFFF" font-family="sans-serif" font-size="14" font-weight="700" lengthAdjust="spacing" textLength="84.2237" x="483.282" y="206.3734">Source code</text><text fill="#FFFFFF" font-family="sans-serif" font-size="14" font-weight="700" lengthAdjust="spacing" textLength="80.3597" x="574.7856" y="206.3734">(with error)</text><text fill="#FFFFFF" font-family="sans-serif" font-size="14" font-weight="700" lengthAdjust="spacing" textLength="310.3073" x="414.06" y="225.4414">tree-sitter incremental parse &#8594; AST + tokens</text></g><!--entity lev--><g class="entity" data-qualified-name="lev" data-source-line="34" id="ent0006"><rect fill="#546E7A" height="58.1358" rx="6" ry="6" style="stroke:#263238;stroke-width:0.5;" width="328.4188" x="7" y="439.2375"/><text fill="#FFFFFF" font-family="sans-serif" font-size="14" font-weight="700" lengthAdjust="spacing" textLength="99.0356" x="121.6916" y="464.2034">liblevenshtein</text><text fill="#FFFFFF" font-family="sans-serif" font-size="14" font-weight="700" lengthAdjust="spacing" textLength="308.4188" x="17" y="483.2714">standard_distance (Levenshtein automaton)</text></g><!--entity ens--><g class="entity" data-qualified-name="ens" data-source-line="36" id="ent0007"><rect fill="#455A64" height="58.1358" rx="6" ry="6" style="stroke:#263238;stroke-width:0.5;" width="398.4406" x="369.99" y="439.2375"/><text fill="#FFFFFF" font-family="sans-serif" font-size="14" font-weight="700" lengthAdjust="spacing" textLength="134.2735" x="502.0736" y="464.2034">EnsembleCorrector</text><text fill="#FFFFFF" font-family="sans-serif" font-size="14" font-weight="700" lengthAdjust="spacing" textLength="378.4406" x="379.99" y="483.2714">collect &#8594; weight &#8594; merge (agreement &#8853; boost) &#8594; rank</text></g><!--entity out--><g class="entity" data-qualified-name="out" data-source-line="37" id="ent0008"><rect fill="#455A64" height="58.1358" rx="6" ry="6" style="stroke:#263238;stroke-width:0.5;" width="289.709" x="424.35" y="559.8575"/><text fill="#FFFFFF" font-family="sans-serif" font-size="14" font-weight="700" lengthAdjust="spacing" textLength="135.4075" x="501.5007" y="584.8234">Ranked corrections</text><text fill="#FFFFFF" font-family="sans-serif" font-size="14" font-weight="700" lengthAdjust="spacing" textLength="269.709" x="434.35" y="603.8914">confidence-sorted, deduplicated, top-k</text></g><g class="entity" data-qualified-name="GMN17" data-source-line="49" id="ent0018"><path d="M803.33,436.7475 L803.33,499.8656 A0,0 0 0 0 803.33,499.8656 L1109.0952,499.8656 A0,0 0 0 0 1109.0952,499.8656 L1109.0952,446.7475 L1099.0952,436.7475 L850.82,436.7475 L846.82,377.1975 L842.82,436.7475 L803.33,436.7475 A0,0 0 0 0 803.33,436.7475" fill="#FFF8E1" style="stroke:#181818;stroke-width:0.5;"/><path d="M1099.0952,436.7475 L1099.0952,446.7475 L1109.0952,446.7475 L1099.0952,436.7475" fill="#FFF8E1" style="stroke:#181818;stroke-width:0.5;"/><text fill="#000000" font-family="sans-serif" font-size="13" lengthAdjust="spacing" textLength="284.7652" x="809.33" y="455.6445">&#129000; the GNN/semantic path is experimental and</text><text fill="#000000" font-family="sans-serif" font-size="13" lengthAdjust="spacing" textLength="258.6872" x="822.369" y="473.3505">falls back to deterministic CPG graph rules</text><text fill="#000000" font-family="sans-serif" font-size="13" lengthAdjust="spacing" textLength="263.6792" x="819.873" y="491.0565">when learned embeddings are unavailable.</text></g><!--link src to lex--><g class="link" data-entity-1="ent0001" data-entity-2="ent0003" data-link-type="dependency" data-source-line="39" id="lnk9"><path d="M423.32,239.7575 C423.32,257.4275 423.32,275.1475 423.32,294.3075" fill="none" id="src-to-lex" style="stroke:#37474F;stroke-width:1;"/><polygon fill="#37474F" points="423.32,299.3075,427.32,290.3075,423.32,294.3075,419.32,290.3075,423.32,299.3075" style="stroke:#37474F;stroke-width:1;stroke-linejoin:miter;stroke-miterlimit:10;"/></g><!--link src to gram--><g class="link" data-entity-1="ent0001" data-entity-2="ent0004" data-link-type="dependency" data-source-line="40" id="lnk10"><path d="M569.21,239.7575 C569.21,257.4275 569.21,275.1475 569.21,294.3075" fill="none" id="src-to-gram" style="stroke:#37474F;stroke-width:1;"/><polygon fill="#37474F" points="569.21,299.3075,573.21,290.3075,569.21,294.3075,565.21,290.3075,569.21,299.3075" style="stroke:#37474F;stroke-width:1;stroke-linejoin:miter;stroke-miterlimit:10;"/></g><!--link src to sem--><g class="link" data-entity-1="ent0001" data-entity-2="ent0005" data-link-type="dependency" data-source-line="41" id="lnk11"><path d="M715.24,239.7575 C715.24,257.4275 715.24,275.1475 715.24,294.3075" fill="none" id="src-to-sem" style="stroke:#37474F;stroke-width:1;"/><polygon fill="#37474F" points="715.24,299.3075,719.24,290.3075,715.24,294.3075,711.24,290.3075,715.24,299.3075" style="stroke:#37474F;stroke-width:1;stroke-linejoin:miter;stroke-miterlimit:10;"/></g><!--link lex to lev--><g class="link" data-entity-1="ent0003" data-entity-2="ent0006" data-link-type="dependency" data-source-line="42" id="lnk12"><path d="M296.63,377.1975 C296.63,396.9675 296.63,415.5675 296.63,433.7975" fill="none" id="lex-to-lev" style="stroke:#546E7A;stroke-width:1;stroke-dasharray:7,7;"/><polygon fill="#546E7A" points="296.63,438.7975,300.63,429.7975,296.63,433.7975,292.63,429.7975,296.63,438.7975" style="stroke:#546E7A;stroke-width:1;stroke-linejoin:miter;stroke-miterlimit:10;"/><text fill="#000000" font-family="sans-serif" font-size="13" lengthAdjust="spacing" textLength="59.553" x="236.63" y="403.8945">delegates</text></g><!--link lex to ens--><g class="link" data-entity-1="ent0003" data-entity-2="ent0007" data-link-type="dependency" data-source-line="43" id="lnk13"><path d="M406.29,377.1975 C406.29,396.9675 406.29,415.5675 406.29,433.7975" fill="none" id="lex-to-ens" style="stroke:#37474F;stroke-width:1;"/><polygon fill="#37474F" points="406.29,438.7975,410.29,429.7975,406.29,433.7975,402.29,429.7975,406.29,438.7975" style="stroke:#37474F;stroke-width:1;stroke-linejoin:miter;stroke-miterlimit:10;"/><text fill="#000000" font-family="sans-serif" font-size="13" lengthAdjust="spacing" textLength="96.5251" x="309.29" y="403.8945">source = Lexical</text></g><!--link gram to ens--><g class="link" data-entity-1="ent0004" data-entity-2="ent0007" data-link-type="dependency" data-source-line="44" id="lnk14"><path d="M569.21,377.1975 C569.21,396.9675 569.21,415.5675 569.21,433.7975" fill="none" id="gram-to-ens" style="stroke:#37474F;stroke-width:1;"/><polygon fill="#37474F" points="569.21,438.7975,573.21,429.7975,569.21,433.7975,565.21,429.7975,569.21,438.7975" style="stroke:#37474F;stroke-width:1;stroke-linejoin:miter;stroke-miterlimit:10;"/><text fill="#000000" font-family="sans-serif" font-size="13" lengthAdjust="spacing" textLength="114.3611" x="454.21" y="403.8945">source = Grammar</text></g><!--link sem to ens--><g class="link" data-entity-1="ent0005" data-entity-2="ent0007" data-link-type="dependency" data-source-line="45" id="lnk15"><path d="M732.27,377.1975 C732.27,396.9675 732.27,415.5675 732.27,433.7975" fill="none" id="sem-to-ens" style="stroke:#37474F;stroke-width:1;"/><polygon fill="#37474F" points="732.27,438.7975,736.27,429.7975,732.27,433.7975,728.27,429.7975,732.27,438.7975" style="stroke:#37474F;stroke-width:1;stroke-linejoin:miter;stroke-miterlimit:10;"/><text fill="#000000" font-family="sans-serif" font-size="13" lengthAdjust="spacing" textLength="165.0741" x="566.27" y="422.8945">source = Neural / DataFlow</text></g><!--link ens to out--><g class="link" data-entity-1="ent0007" data-entity-2="ent0008" data-link-type="dependency" data-source-line="46" id="lnk16"><path d="M569.21,497.8075 C569.21,516.6475 569.21,535.9575 569.21,554.7275" fill="none" id="ens-to-out" style="stroke:#37474F;stroke-width:1;"/><polygon fill="#37474F" points="569.21,559.7275,573.21,550.7275,569.21,554.7275,565.21,550.7275,569.21,559.7275" style="stroke:#37474F;stroke-width:1;stroke-linejoin:miter;stroke-miterlimit:10;"/></g><?plantuml-src TLNBRXit5DtFLrmaYzYAP2L-1aPZG5Kaeq3W1h5tTL7GmwiHOGuv83cIxRf0LqNRPT6ki-cYw6Vv2_e9FUJCw56aDY2DXlTnxZtdNhwWgxbZ7cXnpuvoAtcGM-Su3yeQya7ajwTK2UTv6Emj6_N0P4tEVPe9GxOE52o5EPFcEvKBtSzUKE54MGhN9s4aUIw52IgdDgnrlXyT38cYS5o8mAHC2i46nZUQzn3Z8nl93garlEjIqo3uHK7IvduebOWf_332ZM47wzXx5OpXVsbhbmFgZ8Ahmvncrj5K5RLZUXtpfK2vBIjhs8Gcr70TPcWNx1QAbtkbpFojCcY1AEa6xIYShOqSMus8pwUZ-BzXuUT2sgKo1VgZFM-SI9w9MeShlWiZhGfJ8Y_b-62tOQMLuN1V0RaBSxjn4849KsYcxpEYgJMXWR2Sgy3jcyjmZ_CRgoLUV6aTEjZYt3y-s3zuWxSjU6V0zklzx8UD32FdxBArFpWvF3cSPa4511oZD_XOgUBfnz_fVKCtFVtyDvqtVAVdouxkfvz-eqbBQ9PfBa0ej5AHKyKy0CdZMsgIfGT8gWhq6Dz_yNmoFHw_UdL6yU-nIJ-a3-FfERucmcc-xopt9oVl3lOxomkk7J0DwVpYehCuEZoUd8mwYyaTscrWaxiel1sj06y1uSq3AxCBrwy6NtUkXqT7e-F3pdNKoLL6sLTrH8kQcigoRCtFirwlLLyKLQz7jBDKa22ZlsxtseGuRru5884ISyTH2O2KfYprRNHvHIyfpPj_HiAJTpcrbMHP1H6A0dbYOyQTP4cLbMv2HPBW5tMoXQhbRENIwm5CJ398YflL3m_tL8gGpwyDInL8AYm0C4DFl_n9CY71c5FBpt_3jpBO2fz8UzcITcqK1E42kYnPSuYiEiQ4vvnYnw7-l-2ThZQYqp-VFlrrRSOVOWOmVcqMmYa1GgbKllOnV6tmtI275AdL2sI_pTUs32BmMBWKJdwtwi7E-xK5YJfOTCgQtROhYpK_Mv6x4TZgIcwrne_4zPBZFAJ7aXretS5ouqGaFVtw1wRP-h2RpfqmjoaTO52hpkri7s41VQutk6_IcPcIZ2867ck5PH_zbtMbeORq2sCvQ2B7XTv5pgBg1eEpoFdgENAq-e7IiYY8lM_QuljI-3dBR_VEKajE4yznPdooYpuH-odvPa3UTdiaIzn_vhmLLHRP-ypnQkBVYI2csYwpQ10DKKcM6HlYFWmWAru5IGBJwVJDv3Nq5UMJxXrePxYwfYg1KLNeyLt5JhMZ2It00HjT-tG7n4jFGi2kL0RwW5jK8MgevkHgZN89Ynbtd6Q1LIi96c0fSIru4hY2QYCMGccHBhku62FGx5y0?></g></svg>