<svg xmlns="http://www.w3.org/2000/svg" xmlns:xlink="http://www.w3.org/1999/xlink" contentStyleType="text/css" data-diagram-type="STATE" height="1024px" preserveAspectRatio="none" style="width:1529px;height:1024px;background:#FAFAFA;" version="1.1" viewBox="0 0 1529 1024" width="1529px" zoomAndPan="magnify"><?plantuml $version$?><defs><filter height="1" id="bs8b2hle4g8i40" width="1" x="0" y="0"><feFlood flood-color="#00838F" result="flood"/><feComposite in="SourceGraphic" in2="flood" operator="over"/></filter><filter height="1" id="bs8b2hle4g8i41" width="1" x="0" y="0"><feFlood flood-color="#C62828" result="flood"/><feComposite in="SourceGraphic" in2="flood" operator="over"/></filter><filter height="1" id="bs8b2hle4g8i42" width="1" x="0" y="0"><feFlood flood-color="#455A64" result="flood"/><feComposite in="SourceGraphic" in2="flood" operator="over"/></filter><filter height="1" id="bs8b2hle4g8i43" width="1" x="0" y="0"><feFlood flood-color="#1565C0" result="flood"/><feComposite in="SourceGraphic" in2="flood" operator="over"/></filter></defs><g><rect fill="#FAFAFA" height="1024" style="stroke:none;stroke-width:1;" width="1529" x="0" y="0"/><g class="legend" data-source-line="23"><rect fill="none" height="109.3396" rx="7.5" ry="7.5" style="stroke:#000000;stroke-width:1;" width="236.2671" x="1274.263" y="12"/><text fill="#000000" font-family="sans-serif" font-size="14" font-weight="700" lengthAdjust="spacing" textLength="57.3438" x="1282.903" y="33.9659">Concept</text><text fill="#000000" font-family="sans-serif" font-size="14" font-weight="700" lengthAdjust="spacing" textLength="36.9179" x="1464.9722" y="33.9659">Color</text><text fill="#000000" font-family="sans-serif" font-size="14" lengthAdjust="spacing" textLength="101.0796" x="1282.903" y="53.0339">reachable state</text><text fill="#000000" font-family="sans-serif" font-size="14" lengthAdjust="spacing" textLength="3.64" x="1461.3323" y="53.0339">&#160;</text><text fill="#000000" filter="url(#bs8b2hle4g8i40)" font-family="sans-serif" font-size="14" lengthAdjust="spacing" textLength="29.1199" x="1464.9722" y="53.0339">&#160;&#160;&#160;&#160;&#160;&#160;&#160;&#160;</text><text fill="#000000" font-family="sans-serif" font-size="14" lengthAdjust="spacing" textLength="3.64" x="1494.0921" y="53.0339">&#160;</text><text fill="#000000" font-family="sans-serif" font-size="14" lengthAdjust="spacing" textLength="91.7557" x="1282.903" y="72.1018">terminal state</text><text fill="#000000" font-family="sans-serif" font-size="14" lengthAdjust="spacing" textLength="3.64" x="1461.3323" y="72.1018">&#160;</text><text fill="#000000" filter="url(#bs8b2hle4g8i41)" font-family="sans-serif" font-size="14" lengthAdjust="spacing" textLength="29.1199" x="1464.9722" y="72.1018">&#160;&#160;&#160;&#160;&#160;&#160;&#160;&#160;</text><text fill="#000000" font-family="sans-serif" font-size="14" lengthAdjust="spacing" textLength="3.64" x="1494.0921" y="72.1018">&#160;</text><text fill="#000000" font-family="sans-serif" font-size="14" lengthAdjust="spacing" textLength="168.7553" x="1282.903" y="91.1697">declared but unreachable</text><text fill="#000000" font-family="sans-serif" font-size="14" lengthAdjust="spacing" textLength="3.64" x="1461.3323" y="91.1697">&#160;</text><text fill="#000000" filter="url(#bs8b2hle4g8i42)" font-family="sans-serif" font-size="14" lengthAdjust="spacing" textLength="29.1199" x="1464.9722" y="91.1697">&#160;&#160;&#160;&#160;&#160;&#160;&#160;&#160;</text><text fill="#000000" font-family="sans-serif" font-size="14" lengthAdjust="spacing" textLength="3.64" x="1494.0921" y="91.1697">&#160;</text><text fill="#000000" font-family="sans-serif" font-size="14" lengthAdjust="spacing" textLength="174.7893" x="1282.903" y="110.2376">task execution (side effect)</text><text fill="#000000" font-family="sans-serif" font-size="14" lengthAdjust="spacing" textLength="3.64" x="1461.3323" y="110.2376">&#160;</text><text fill="#000000" filter="url(#bs8b2hle4g8i43)" font-family="sans-serif" font-size="14" lengthAdjust="spacing" textLength="29.1199" x="1464.9722" y="110.2376">&#160;&#160;&#160;&#160;&#160;&#160;&#160;&#160;</text><text fill="#000000" font-family="sans-serif" font-size="14" lengthAdjust="spacing" textLength="3.64" x="1494.0921" y="110.2376">&#160;</text><line style="stroke:#000000;stroke-width:1;" x1="1279.263" x2="1505.5301" y1="19" y2="19"/><line style="stroke:#000000;stroke-width:1;" x1="1279.263" x2="1505.5301" y1="38.0679" y2="38.0679"/><line style="stroke:#000000;stroke-width:1;" x1="1279.263" x2="1505.5301" y1="57.1358" y2="57.1358"/><line style="stroke:#000000;stroke-width:1;" x1="1279.263" x2="1505.5301" y1="76.2038" y2="76.2038"/><line style="stroke:#000000;stroke-width:1;" x1="1279.263" x2="1505.5301" y1="95.2717" y2="95.2717"/><line style="stroke:#000000;stroke-width:1;" x1="1279.263" x2="1505.5301" y1="114.3396" y2="114.3396"/><line style="stroke:#000000;stroke-width:1;" x1="1279.263" x2="1279.263" y1="19" y2="114.3396"/><line style="stroke:#000000;stroke-width:1;" x1="1461.3323" x2="1461.3323" y1="19" y2="114.3396"/><line style="stroke:#000000;stroke-width:1;" x1="1505.5301" x2="1505.5301" y1="19" y2="114.3396"/></g><g class="entity" data-qualified-name="CheckEvents" data-source-line="33" id="ent0001"><rect fill="#00838F" height="115.3396" rx="12.5" ry="12.5" style="stroke:#263238;stroke-width:0.5;" width="297.0029" x="823.93" y="349.6296"/><line style="stroke:#263238;stroke-width:0.5;" x1="823.93" x2="1120.9329" y1="378.6975" y2="378.6975"/><text fill="#263238" font-family="sans-serif" font-size="14" font-weight="700" lengthAdjust="spacing" textLength="88.7456" x="928.0586" y="369.5955">CheckEvents</text><text fill="#263238" font-family="sans-serif" font-size="14" lengthAdjust="spacing" textLength="277.0029" x="833.93" y="398.6634">initial state &#8212; evaluate every event source</text><text fill="#263238" font-family="sans-serif" font-size="14" lengthAdjust="spacing" textLength="269.8349" x="837.514" y="417.7314">try_recv() the task channel (non-blocking)</text><text fill="#263238" font-family="sans-serif" font-size="14" lengthAdjust="spacing" textLength="225.7631" x="859.5499" y="436.7993">peek() the min-heap for a due task</text><text fill="#263238" font-family="sans-serif" font-size="14" lengthAdjust="spacing" textLength="222.3051" x="861.2789" y="455.8672">load(Acquire) the termination flag</text></g><g class="entity" data-qualified-name="DrainChannel" data-source-line="39" id="ent0002"><rect fill="#00838F" height="77.2038" rx="12.5" ry="12.5" style="stroke:#263238;stroke-width:0.5;" width="308.6229" x="717.12" y="580.1196"/><line style="stroke:#263238;stroke-width:0.5;" x1="717.12" x2="1025.7429" y1="609.1875" y2="609.1875"/><text fill="#263238" font-family="sans-serif" font-size="14" font-weight="700" lengthAdjust="spacing" textLength="95.3816" x="823.7406" y="600.0855">DrainChannel</text><text fill="#263238" font-family="sans-serif" font-size="14" lengthAdjust="spacing" textLength="275.0989" x="733.882" y="629.1534">keep pulling until try_recv() reports Empty</text><text fill="#263238" font-family="sans-serif" font-size="14" lengthAdjust="spacing" textLength="288.6229" x="727.12" y="648.2214">every received task is pushed onto the heap</text></g><g class="entity" data-qualified-name="Sleeping" data-source-line="43" id="ent0003"><rect fill="#00838F" height="77.2038" rx="12.5" ry="12.5" style="stroke:#263238;stroke-width:0.5;" width="306.8589" x="1059" y="754.3296"/><line style="stroke:#263238;stroke-width:0.5;" x1="1059" x2="1365.8589" y1="783.3975" y2="783.3975"/><text fill="#263238" font-family="sans-serif" font-size="14" font-weight="700" lengthAdjust="spacing" textLength="59.5838" x="1182.6376" y="774.2955">Sleeping</text><text fill="#263238" font-family="sans-serif" font-size="14" lengthAdjust="spacing" textLength="239.8051" x="1092.5269" y="803.3634">do_sleep() runs on entry to this state</text><text fill="#263238" font-family="sans-serif" font-size="14" lengthAdjust="spacing" textLength="286.8589" x="1069" y="822.4314">sleeps min(&#916;t to next task, poll_interval_ms)</text></g><g class="entity" data-qualified-name="ExecutingTask" data-source-line="47" id="ent0004"><rect fill="#455A64" height="58.1358" rx="12.5" ry="12.5" style="stroke:#263238;stroke-width:0.5;" width="275.863" x="212.5" y="141.3396"/><line style="stroke:#263238;stroke-width:0.5;" x1="212.5" x2="488.363" y1="170.4075" y2="170.4075"/><text fill="#263238" font-family="sans-serif" font-size="14" font-weight="700" lengthAdjust="spacing" textLength="100.9956" x="299.9337" y="161.3055">ExecutingTask</text><text fill="#263238" font-family="sans-serif" font-size="14" lengthAdjust="spacing" textLength="255.863" x="222.5" y="190.3734">declared in CronState &#8212; never entered</text></g><g class="entity" data-qualified-name="Terminated" data-source-line="50" id="ent0005"><rect fill="#C62828" height="58.1358" rx="12.5" ry="12.5" style="stroke:#263238;stroke-width:0.5;" width="266.679" x="634.09" y="930.7296"/><line style="stroke:#263238;stroke-width:0.5;" x1="634.09" x2="900.769" y1="959.7975" y2="959.7975"/><text fill="#263238" font-family="sans-serif" font-size="14" font-weight="700" lengthAdjust="spacing" textLength="81.2977" x="726.7807" y="950.6955">Terminated</text><text fill="#263238" font-family="sans-serif" font-size="14" lengthAdjust="spacing" textLength="246.679" x="644.09" y="979.7634">run() loop exits &#183; the cron thread joins</text></g><g class="start_entity" data-qualified-name=".start." data-source-line="31" id="ent0006"><ellipse cx="972.43" cy="170.4096" fill="#222222" rx="10" ry="10" style="stroke:#222222;stroke-width:1;"/></g><g class="entity" data-qualified-name="GMN22" data-source-line="73" id="ent0023"><path d="M6,331.4696 L6,483.1177 A0,0 0 0 0 6,483.1177 L418.8593,483.1177 A0,0 0 0 0 418.8593,483.1177 L418.8593,341.4696 L408.8593,331.4696 L260.64,331.4696 L333.78,199.7396 L252.64,331.4696 L6,331.4696 A0,0 0 0 0 6,331.4696" fill="#ECEFF1" style="stroke:#546E7A;stroke-width:0.5;"/><path d="M408.8593,331.4696 L408.8593,341.4696 L418.8593,341.4696 L408.8593,331.4696" fill="#ECEFF1" style="stroke:#546E7A;stroke-width:0.5;"/><text fill="#000000" font-family="sans-serif" font-size="13" lengthAdjust="spacing" textLength="385.4764" x="15.1915" y="350.3666">CronState::ExecutingTask and CronEvent::TaskCompleted exist,</text><text fill="#000000" font-family="sans-serif" font-size="13" lengthAdjust="spacing" textLength="367.8743" x="23.9925" y="368.0726">and transition() carries an arm for the pair, but no code path</text><text fill="#000000" font-family="sans-serif" font-size="13" lengthAdjust="spacing" textLength="385.0083" x="15.4255" y="385.7786">ever assigns state = ExecutingTask. execute_one_task() is called</text><text fill="#000000" font-family="sans-serif" font-size="13" font-weight="700" lengthAdjust="spacing" textLength="38.727" x="21.8995" y="403.4846">inside</text><text fill="#000000" font-family="sans-serif" font-size="13" lengthAdjust="spacing" textLength="329.9532" x="64.0066" y="403.4846">the TaskDue arms and returns before the next poll, so</text><text fill="#000000" font-family="sans-serif" font-size="13" lengthAdjust="spacing" textLength="151.8921" x="131.9836" y="421.1907">the reachable state set is</text><text fill="#000000" font-family="sans-serif" font-size="13" lengthAdjust="spacing" textLength="324.7534" x="50.623" y="438.8967">{ CheckEvents, DrainChannel, Sleeping, Terminated }.</text><text fill="#000000" font-family="sans-serif" font-size="13" lengthAdjust="spacing" textLength="386.0353" x="14.912" y="456.6027">poll_event() encodes exactly this: its ExecutingTask branch is an</text><text fill="#000000" font-family="sans-serif" font-size="13" lengthAdjust="spacing" textLength="391.8593" x="12" y="474.3087">unreachable!() with the message 'ExecutingTask polls internally'.</text></g><g class="entity" data-qualified-name="GMN25" data-source-line="84" id="ent0026"><path d="M936.16,910.5296 L936.16,955.7896 L901,959.7896 L936.16,963.7896 L936.16,1009.0597 A0,0 0 0 0 936.16,1009.0597 L1254.6913,1009.0597 A0,0 0 0 0 1254.6913,1009.0597 L1254.6913,920.5296 L1244.6913,910.5296 L936.16,910.5296 A0,0 0 0 0 936.16,910.5296" fill="#ECEFF1" style="stroke:#546E7A;stroke-width:0.5;"/><path d="M1244.6913,910.5296 L1244.6913,920.5296 L1254.6913,920.5296 L1244.6913,910.5296" fill="#ECEFF1" style="stroke:#546E7A;stroke-width:0.5;"/><text fill="#000000" font-family="sans-serif" font-size="13" lengthAdjust="spacing" textLength="194.1942" x="959.0665" y="929.4266">poll_event() tests the heap head</text><text fill="#000000" font-family="sans-serif" font-size="13" font-weight="700" lengthAdjust="spacing" textLength="42.705" x="1156.6407" y="929.4266">before</text><text fill="#000000" font-family="sans-serif" font-size="13" lengthAdjust="spacing" textLength="20.059" x="1202.7257" y="929.4266">the</text><text fill="#000000" font-family="sans-serif" font-size="13" lengthAdjust="spacing" textLength="275.2752" x="953.288" y="947.1326">termination flag, so a task that is already due</text><text fill="#000000" font-family="sans-serif" font-size="13" lengthAdjust="spacing" textLength="297.5313" x="942.16" y="964.8386">still runs after request_shutdown(). A perpetually</text><text fill="#000000" font-family="sans-serif" font-size="13" lengthAdjust="spacing" textLength="290.8102" x="945.5205" y="982.5446">due task (interval_ms = 0, or a body slower than</text><text fill="#000000" font-family="sans-serif" font-size="13" lengthAdjust="spacing" textLength="273.3513" x="954.25" y="1000.2507">its own interval) therefore starves shutdown.</text></g><g class="entity" data-qualified-name="GMN28" data-source-line="92" id="ent0029"><path d="M454.26,358.0296 L454.26,456.5597 A0,0 0 0 0 454.26,456.5597 L788.5993,456.5597 A0,0 0 0 0 788.5993,456.5597 L788.5993,411.2996 L823.43,407.2996 L788.5993,403.2996 L788.5993,368.0296 L778.5993,358.0296 L454.26,358.0296 A0,0 0 0 0 454.26,358.0296" fill="#ECEFF1" style="stroke:#546E7A;stroke-width:0.5;"/><path d="M778.5993,358.0296 L778.5993,368.0296 L788.5993,368.0296 L778.5993,358.0296" fill="#ECEFF1" style="stroke:#546E7A;stroke-width:0.5;"/><text fill="#000000" font-family="sans-serif" font-size="13" lengthAdjust="spacing" textLength="295.2952" x="469.282" y="376.9266">execute_one_task() pops the earliest task, runs it</text><text fill="#000000" font-family="sans-serif" font-size="13" lengthAdjust="spacing" textLength="246.2852" x="493.787" y="394.6326">under catch_unwind, and re-queues it at</text><text fill="#000000" font-family="sans-serif" font-size="13" lengthAdjust="spacing" textLength="313.3393" x="460.26" y="412.3386">now_ms() + interval only when the closure returned</text><text fill="#000000" font-family="sans-serif" font-size="13" lengthAdjust="spacing" textLength="25.428" x="484.882" y="430.0446">true</text><text fill="#000000" font-family="sans-serif" font-size="13" font-weight="700" lengthAdjust="spacing" textLength="24.453" x="513.6901" y="430.0446">and</text><text fill="#000000" font-family="sans-serif" font-size="13" lengthAdjust="spacing" textLength="207.4541" x="541.5231" y="430.0446">the metadata carries a recurrence</text><text fill="#000000" font-family="sans-serif" font-size="13" lengthAdjust="spacing" textLength="291.9904" x="470.9344" y="447.7507">interval. false &#8658; retire; panic &#8658; count and retire.</text></g><!--link *start* to CheckEvents--><g class="link" data-entity-1="ent0006" data-entity-2="ent0001" data-link-type="dependency" data-source-line="31" id="lnk7"><path d="M972.43,180.9096 C972.43,208.7996 972.43,287.0996 972.43,344.2196" fill="none" id="*start*-to-CheckEvents" style="stroke:#37474F;stroke-width:1;"/><polygon fill="#37474F" points="972.43,349.2196,976.43,340.2196,972.43,344.2196,968.43,340.2196,972.43,349.2196" style="stroke:#37474F;stroke-width:1;stroke-linejoin:miter;stroke-miterlimit:10;"/><text fill="#000000" font-family="sans-serif" font-size="13" lengthAdjust="spacing" textLength="145.2621" x="973.43" y="270.8666">CronStateMachine::new</text></g><!--link CheckEvents to DrainChannel--><g class="link" data-entity-1="ent0001" data-entity-2="ent0002" data-link-type="dependency" data-source-line="53" id="lnk8"><path d="M847.43,465.4096 C797.43,488.5496 751.1,510.4896 749.43,513.1196 C732.98,539.0296 748.9503,559.3392 777.3603,577.0992" fill="none" id="CheckEvents-to-DrainChannel" style="stroke:#37474F;stroke-width:1;"/><polygon fill="#37474F" points="781.6,579.7496,776.0888,571.5871,777.3603,577.0992,771.8482,578.3707,781.6,579.7496" style="stroke:#37474F;stroke-width:1;stroke-linejoin:miter;stroke-miterlimit:10;"/><text fill="#000000" font-family="sans-serif" font-size="13" font-weight="700" lengthAdjust="spacing" textLength="87.9191" x="750.43" y="537.0166">TaskReceived</text></g><!--link DrainChannel to CheckEvents--><g class="link" data-entity-1="ent0002" data-entity-2="ent0001" data-link-type="dependency" data-source-line="55" id="lnk10"><path d="M868.11,580.0496 C867.72,559.5196 869.59,534.0896 878.43,513.1196 C885.69,495.8896 893.76,483.3992 906.06,469.0192" fill="none" id="DrainChannel-to-CheckEvents" style="stroke:#37474F;stroke-width:1;"/><polygon fill="#37474F" points="909.31,465.2196,900.4202,469.4589,906.06,469.0192,906.4996,474.659,909.31,465.2196" style="stroke:#37474F;stroke-width:1;stroke-linejoin:miter;stroke-miterlimit:10;"/><text fill="#000000" font-family="sans-serif" font-size="13" font-weight="700" lengthAdjust="spacing" textLength="140.8681" x="879.43" y="528.0166">ChannelDisconnected</text><text fill="#000000" font-family="sans-serif" font-size="13" lengthAdjust="spacing" textLength="126.6071" x="886.5605" y="545.7226">(drain what remains)</text></g><!--link DrainChannel to CheckEvents--><g class="link" data-entity-1="ent0002" data-entity-2="ent0001" data-link-type="dependency" data-source-line="58" id="lnk12"><path d="M994.88,579.7396 C1006.48,571.6796 1016.74,561.9196 1024.43,550.1196 C1041.25,524.2996 1034.1278,496.6638 1018.8478,469.5938" fill="none" id="DrainChannel-to-CheckEvents-1" style="stroke:#1565C0;stroke-width:2;"/><polygon fill="#1565C0" points="1016.39,465.2396,1017.3307,475.0434,1018.8478,469.5938,1024.2974,471.1109,1016.39,465.2396" style="stroke:#1565C0;stroke-width:2;stroke-linejoin:miter;stroke-miterlimit:10;"/><text fill="#000000" font-family="sans-serif" font-size="13" font-weight="700" lengthAdjust="spacing" textLength="55.601" x="1064.2745" y="528.0166">TaskDue</text><text fill="#000000" font-family="sans-serif" font-size="13" lengthAdjust="spacing" textLength="115.5701" x="1034.29" y="545.7226">execute_one_task()</text></g><!--link DrainChannel to DrainChannel--><g class="link" data-entity-1="ent0002" data-entity-2="ent0002" data-link-type="dependency" data-source-line="54" id="lnk9"><path d="M1025.93,604.2396 C1046.83,606.6596 1060.74,611.4896 1060.74,618.7196 C1060.74,625.9496 1051.7965,630.2021 1030.8965,632.6321" fill="none" id="DrainChannel-to-DrainChannel" style="stroke:#37474F;stroke-width:1;"/><polygon fill="#37474F" points="1025.93,633.2096,1035.3317,636.1434,1030.8965,632.6321,1034.4078,628.1969,1025.93,633.2096" style="stroke:#37474F;stroke-width:1;stroke-linejoin:miter;stroke-miterlimit:10;"/><text fill="#000000" font-family="sans-serif" font-size="13" font-weight="700" lengthAdjust="spacing" textLength="87.9191" x="1066.74" y="624.1166">TaskReceived</text></g><!--link CheckEvents to CheckEvents--><g class="link" data-entity-1="ent0001" data-entity-2="ent0001" data-link-type="dependency" data-source-line="57" id="lnk11"><path d="M1121.11,386.4396 C1141.96,389.8396 1155.93,396.7996 1155.93,407.2996 C1155.93,417.7996 1146.8944,423.9426 1126.0444,427.3526" fill="none" id="CheckEvents-to-CheckEvents" style="stroke:#1565C0;stroke-width:2;"/><polygon fill="#1565C0" points="1121.11,428.1596,1130.6376,430.6545,1126.0444,427.3526,1129.3464,422.7594,1121.11,428.1596" style="stroke:#1565C0;stroke-width:2;stroke-linejoin:miter;stroke-miterlimit:10;"/><text fill="#000000" font-family="sans-serif" font-size="13" font-weight="700" lengthAdjust="spacing" textLength="55.601" x="1184.7782" y="403.6966">TaskDue</text><text fill="#000000" font-family="sans-serif" font-size="13" lengthAdjust="spacing" textLength="10.8926" x="1243.7593" y="403.6966">&#10227;</text><text fill="#000000" font-family="sans-serif" font-size="13" lengthAdjust="spacing" textLength="115.5701" x="1161.93" y="421.4026">execute_one_task()</text></g><!--link Sleeping to CheckEvents--><g class="link" data-entity-1="ent0003" data-entity-2="ent0001" data-link-type="dependency" data-source-line="59" id="lnk13"><path d="M1240.04,753.8696 C1267.19,711.6296 1302.08,641.3396 1283.43,580.1196 C1261.54,508.2796 1194.837,467.5961 1125.957,442.9161" fill="none" id="Sleeping-to-CheckEvents" style="stroke:#1565C0;stroke-width:2;"/><polygon fill="#1565C0" points="1121.25,441.2296,1128.3733,448.0309,1125.957,442.9161,1131.0718,440.4998,1121.25,441.2296" style="stroke:#1565C0;stroke-width:2;stroke-linejoin:miter;stroke-miterlimit:10;"/><text fill="#000000" font-family="sans-serif" font-size="13" font-weight="700" lengthAdjust="spacing" textLength="55.601" x="1319.6645" y="615.1166">TaskDue</text><text fill="#000000" font-family="sans-serif" font-size="13" lengthAdjust="spacing" textLength="115.5701" x="1289.68" y="632.8226">execute_one_task()</text></g><!--link CheckEvents to Sleeping--><g class="link" data-entity-1="ent0001" data-entity-2="ent0003" data-link-type="dependency" data-source-line="61" id="lnk14"><path d="M1107.37,465.2196 C1126.87,478.4596 1144.89,494.3296 1158.43,513.1196 C1211.04,586.1196 1216.2052,691.7312 1214.7652,749.2312" fill="none" id="CheckEvents-to-Sleeping" style="stroke:#37474F;stroke-width:1;"/><polygon fill="#37474F" points="1214.64,754.2296,1218.8641,745.3325,1214.7652,749.2312,1210.8666,745.1323,1214.64,754.2296" style="stroke:#37474F;stroke-width:1;stroke-linejoin:miter;stroke-miterlimit:10;"/><text fill="#000000" font-family="sans-serif" font-size="13" font-weight="700" lengthAdjust="spacing" textLength="61.776" x="1210.32" y="624.1166">NoEvents</text></g><!--link Sleeping to CheckEvents--><g class="link" data-entity-1="ent0003" data-entity-2="ent0001" data-link-type="dependency" data-source-line="63" id="lnk16"><path d="M1306.17,753.8896 C1346.88,732.0996 1390.44,700.3996 1413.43,657.3296 C1429.59,627.0596 1431.34,609.3896 1413.43,580.1196 C1352.65,480.7696 1228.8973,439.6089 1126.1473,421.8989" fill="none" id="Sleeping-to-CheckEvents-1" style="stroke:#37474F;stroke-width:1;"/><polygon fill="#37474F" points="1121.22,421.0496,1129.4098,426.5202,1126.1473,421.8989,1130.7686,418.6364,1121.22,421.0496" style="stroke:#37474F;stroke-width:1;stroke-linejoin:miter;stroke-miterlimit:10;"/><text fill="#000000" font-family="sans-serif" font-size="13" font-weight="700" lengthAdjust="spacing" textLength="86.3201" x="1427.21" y="624.1166">TimerExpired</text></g><!--link DrainChannel to Sleeping--><g class="link" data-entity-1="ent0002" data-entity-2="ent0003" data-link-type="dependency" data-source-line="62" id="lnk15"><path d="M913.99,657.8096 C940.08,679.6196 974.99,706.1696 1009.43,724.3296 C1030.71,735.5396 1049.5129,743.6957 1072.7529,752.1757" fill="none" id="DrainChannel-to-Sleeping" style="stroke:#37474F;stroke-width:1;"/><polygon fill="#37474F" points="1077.45,753.8896,1070.3664,747.0469,1072.7529,752.1757,1067.6241,754.5622,1077.45,753.8896" style="stroke:#37474F;stroke-width:1;stroke-linejoin:miter;stroke-miterlimit:10;"/><text fill="#000000" font-family="sans-serif" font-size="13" font-weight="700" lengthAdjust="spacing" textLength="61.776" x="1067.2921" y="702.2266">NoEvents</text><text fill="#000000" font-family="sans-serif" font-size="13" lengthAdjust="spacing" textLength="175.5002" x="1010.43" y="719.9326">channel empty &#183; nothing due</text></g><!--link CheckEvents to Terminated--><g class="link" data-entity-1="ent0001" data-entity-2="ent0005" data-link-type="dependency" data-source-line="65" id="lnk17"><path d="M855.48,465.2996 C839.24,471.9496 822.59,478.1196 806.43,483.1196 C733.97,505.5396 704.85,476.4996 638.43,513.1196 C546.63,563.7296 517.33,589.5896 479.43,687.3296 C435.21,801.3596 587.1179,886.105 686.5979,928.355" fill="none" id="CheckEvents-to-Terminated" style="stroke:#C62828;stroke-width:2;"/><polygon fill="#C62828" points="691.2,930.3096,684.4798,923.1097,686.5979,928.355,681.3525,930.4731,691.2,930.3096" style="stroke:#C62828;stroke-width:2;stroke-linejoin:miter;stroke-miterlimit:10;"/><text fill="#000000" font-family="sans-serif" font-size="13" font-weight="700" lengthAdjust="spacing" textLength="140.8681" x="480.43" y="702.2266">ChannelDisconnected</text><text fill="#000000" font-family="sans-serif" font-size="13" lengthAdjust="spacing" textLength="117.0643" x="492.3319" y="719.9326">&#8743; queue.is_empty()</text></g><!--link CheckEvents to Terminated--><g class="link" data-entity-1="ent0001" data-entity-2="ent0005" data-link-type="dependency" data-source-line="66" id="lnk18"><path d="M846.58,465.3996 C833.05,471.4296 819.47,477.4296 806.43,483.1196 C775.03,496.8296 760.76,490.0496 735.43,513.1196 C710.44,535.8896 710.37,548.1396 699.43,580.1196 C678.52,641.2296 670.14,660.7296 681.43,724.3296 C695.19,801.8096 730.5132,882.7687 751.1632,925.9587" fill="none" id="CheckEvents-to-Terminated-1" style="stroke:#C62828;stroke-width:2;"/><polygon fill="#C62828" points="753.32,930.4696,753.0466,920.6245,751.1632,925.9587,745.8291,924.0753,753.32,930.4696" style="stroke:#C62828;stroke-width:2;stroke-linejoin:miter;stroke-miterlimit:10;"/><text fill="#000000" font-family="sans-serif" font-size="13" font-weight="700" lengthAdjust="spacing" textLength="148.8371" x="682.43" y="711.2266">TerminationRequested</text></g><!--link DrainChannel to Terminated--><g class="link" data-entity-1="ent0002" data-entity-2="ent0005" data-link-type="dependency" data-source-line="67" id="lnk19"><path d="M859.8,657.6296 C838.76,726.2396 796.2762,864.7394 777.5962,925.6394" fill="none" id="DrainChannel-to-Terminated" style="stroke:#C62828;stroke-width:2;"/><polygon fill="#C62828" points="776.13,930.4196,782.5934,922.9882,777.5962,925.6394,774.9451,920.6423,776.13,930.4196" style="stroke:#C62828;stroke-width:2;stroke-linejoin:miter;stroke-miterlimit:10;"/><text fill="#000000" font-family="sans-serif" font-size="13" font-weight="700" lengthAdjust="spacing" textLength="148.8371" x="830.77" y="798.3266">TerminationRequested</text></g><!--link Sleeping to Terminated--><g class="link" data-entity-1="ent0003" data-entity-2="ent0005" data-link-type="dependency" data-source-line="68" id="lnk20"><path d="M1109.78,831.9596 C1028.8,861.9596 922.3084,901.4122 848.9084,928.6122" fill="none" id="Sleeping-to-Terminated" style="stroke:#C62828;stroke-width:2;"/><polygon fill="#C62828" points="844.22,930.3496,854.0491,930.973,848.9084,928.6122,851.2693,923.4715,844.22,930.3496" style="stroke:#C62828;stroke-width:2;stroke-linejoin:miter;stroke-miterlimit:10;"/><text fill="#000000" font-family="sans-serif" font-size="13" font-weight="700" lengthAdjust="spacing" textLength="148.8371" x="1030.79" y="876.4266">TerminationRequested</text></g><!--link ExecutingTask to CheckEvents--><g class="link" data-entity-1="ent0004" data-entity-2="ent0001" data-link-type="dependency" data-source-line="70" id="lnk21"><path d="M438.68,199.8796 C531.15,230.2996 680.23,280.9896 806.43,331.4696 C820.22,336.9896 829.9612,341.024 844.1512,347.164" fill="none" id="ExecutingTask-to-CheckEvents" style="stroke:#455A64;stroke-width:1;stroke-dasharray:7,7;"/><polygon fill="#455A64" points="848.74,349.1496,842.0686,341.9045,844.1512,347.164,838.8916,349.2466,848.74,349.1496" style="stroke:#455A64;stroke-width:1;stroke-linejoin:miter;stroke-miterlimit:10;"/><text fill="#000000" font-family="sans-serif" font-size="13" font-weight="700" lengthAdjust="spacing" textLength="100.4901" x="755.295" y="244.3666">TaskCompleted</text><text fill="#000000" font-family="sans-serif" font-size="13" lengthAdjust="spacing" textLength="168.7402" x="721.17" y="262.0726">{ success, should_requeue }</text><text fill="#000000" font-family="sans-serif" font-size="13" lengthAdjust="spacing" textLength="146.1721" x="732.454" y="279.7786">vestigial arm &#8212; nothing</text><text fill="#000000" font-family="sans-serif" font-size="13" lengthAdjust="spacing" textLength="126.6851" x="742.1975" y="297.4846">constructs this event</text></g><?plantuml-src fLVDRjj64BxpARRfmR8gAud_OgX905UnR-qXzYqEX1Kv4hTUxJAxIyj27A2tzbpatcCVe8VU-m1z23z9lrbI4YdBG9l6G40jPxwPdT-FEsBehBa8Cj3tCisLeO48EOdKpWfDWKJ7yxkUe1ioOLVilHRnG3ZICYXhXFH2iUmCxoaJoYGx3p47mKdZ5IlqnTajfMLGPdef_RLGNcIKQkcYybfLZCl0BmqiEs0oF6JW7cjHXG7x4972BqoQGzEMNdYLaQ39XD8Wx2JUXWszAKcilV1zGBubav4RY49B4ygP5dl1tqn5PbF_D5DowkJCFqq1knVlt2yW0xKBMxgK8hOhGoucrebpDIqTYNs-GjI7SphgLW0pQUIKN7-M9VvQcK82MunbUZrrjZJPq6g0V7r-odyD2P_BpCuHAZ6HsbFZJKOJMUfmIRVXLAkfuV2BD0Qf8NNgd9tNu0Sl3bySdZV1OvW_9aASMnCggNck0jKd5s6XaGQhCnnyPnrYLKFj7n_i7vpmwUODdZqxEJWvnvlJ49n22ccDlLPhlQpC80SedKyDzuojlNjWv6nuTdx-VDEfeyFZinUdW4WqJP5P4MmXd9hc8Rbx9ORMf5G44HzP_YwvGn6ZFkKOvgjOt8cNd9D1VOtNelxtyYaVluuw2F1C6QatLOR7-oVx9rjLLlND9LsQjTMLyk7HqUdnuNPxxNBlDCfxTmtm_EZuQFXi2m02KOKZITvrtuizDF0mf_JwZFlPYy6MNZKqJvBgTa-wtOPqj_k4sxsflqnu6rCPDDagHFS_VSRuaBha7zpDYsgQ21yRQKCtkCN8KNhJsOsj6w-FS1b3MdGCMcciROeYcUvkA1P4rxKI4hINaonYQqgHbHNEXeAsCkkSfXzAvQWsLkKs1dgYvRGHXZSEzJci_AZZq3nQ1Q9rE13NH8KeIgsvXqk3eT2yeAF2ElXoDYl2ObErYXGaITsWTa8zB8lIv_Y9nh7HPxvdmyyB3OimLlku_BdoRtKmm9mQUVx5ZfJ60vA7B6n6P9YAe4sDAEuvl9s_FmUMCvW_qRMUAApM8yK32BaUpVnkmwlMoAzTQw-1kWMIzkdWaTt09HKNmt8jD6nTracah3QqFX1rboQDem5V7Y7G5kE2RXNIyTUVrGw4EJoWNJFnerN69wq2ubRQI1cCm-ktTSgwtNPAlqYXNRBSZl7T6-LJYuSqNlFAT39MnFYM0IKpmpF7l-Nkktf8z7YYlzy2NM_9RbVS__R7bQbc3esieH5dkBExuTs_1zmAjggh_mlq82kDYkrsVx3BuVKmk8y8Nfdbm25kJAu7BAES1J5A6evlSrNDo9tT5fWfdC_D55JrjxfegmuVJUxzBx-B3oMLr5T-55tgxFutuClrO7jBWF9XIxLz8KWpZry4iD7pWAbcGI-JFEeUAuXXJL5ZY3uANwOfUTy3PxAbpZ1YOyZ4fojp0qjgoWj9kbarEwfq8j6WWc1nAN3Zo8kBAKaYznZR4EoCULxBGV2ErI0Q3Dg-Iz0EVXbT7GnQRl9myQ47TPPQKr7CdbGwfmX4raGFUMln02gaShr86em58y_u9EG0Y9DFUW_ULqzfyQhjP5yyR1JU7gdKcfZFTRiO4Q0IwFOcGuPv7_rp54e7z3716ueoSTRpb4UCBI3uR9D1UMBIdaGIyh6PjbvhzFLMhTTh5icdFZJZ7ebvWCja-Dx8owrCWrx4985VXCtrCKOuqpn-31XWD4ZMLq2PAz3qI0nG8U3XOgUjpIRn6SEh1CnEBtRwp9iY0wrh8V98BeMrjvkk1bIPNwra_Yz3bAluLL7cc6qm30ub64fSxe67Dzz0yyfPn5aZ45UbTRMWvGJgmbMjC_9v6V1nWFhfYrEm7rSWPUmzb9QCHtGQ2narygmd8YCQM-1xRUV4bHP3nZ45cbWgH4RagkmZjmvD99Oc7uH7qoH6fv5mBjE79LZOeeeHIQTHyalo4E-dGamTA3tgDAJvg3JuzibwTK7knOPcCI5PqjWvRWNGRrPEWyEWIEOvcMg3Q-lviwmgvfWoD3iXBK2iAtz6GMOoo7KJCkSgdKFfSVoNqFtg4qpS__mhus6-VujsD2gD9oa-JyAoSV1k7Q5_0000?></g></svg>