<svg xmlns="http://www.w3.org/2000/svg" xmlns:xlink="http://www.w3.org/1999/xlink" contentStyleType="text/css" data-diagram-type="DESCRIPTION" height="807px" preserveAspectRatio="none" style="width:701px;height:807px;background:#FAFAFA;" version="1.1" viewBox="0 0 701 807" width="701px" zoomAndPan="magnify"><?plantuml $version$?><defs><filter height="1" id="b1nvzx7m6zv5li0" width="1" x="0" y="0"><feFlood flood-color="#EF6C00" result="flood"/><feComposite in="SourceGraphic" in2="flood" operator="over"/></filter><filter height="1" id="b1nvzx7m6zv5li1" width="1" x="0" y="0"><feFlood flood-color="#1565C0" result="flood"/><feComposite in="SourceGraphic" in2="flood" operator="over"/></filter></defs><g><rect fill="#FAFAFA" height="807" style="stroke:none;stroke-width:1;" width="701" x="0" y="0"/><g class="legend" data-source-line="18"><rect fill="none" height="71.2038" rx="7.5" ry="7.5" style="stroke:#000000;stroke-width:1;" width="207.9593" x="474.128" y="12"/><text fill="#000000" font-family="sans-serif" font-size="14" font-weight="700" lengthAdjust="spacing" textLength="57.3438" x="482.768" y="33.9659">Concept</text><text fill="#000000" font-family="sans-serif" font-size="14" font-weight="700" lengthAdjust="spacing" textLength="36.9179" x="636.5294" y="33.9659">Color</text><text fill="#000000" font-family="sans-serif" font-size="14" lengthAdjust="spacing" textLength="133.2515" x="482.768" y="53.0339">LaTeX mode routing</text><text fill="#000000" font-family="sans-serif" font-size="14" lengthAdjust="spacing" textLength="3.64" x="632.8894" y="53.0339">&#160;</text><text fill="#000000" filter="url(#b1nvzx7m6zv5li0)" font-family="sans-serif" font-size="14" lengthAdjust="spacing" textLength="29.1199" x="636.5294" y="53.0339">&#160;&#160;&#160;&#160;&#160;&#160;&#160;&#160;</text><text fill="#000000" font-family="sans-serif" font-size="14" lengthAdjust="spacing" textLength="3.64" x="665.6493" y="53.0339">&#160;</text><text fill="#000000" font-family="sans-serif" font-size="14" lengthAdjust="spacing" textLength="146.4815" x="482.768" y="72.1018">statistical n-gram core</text><text fill="#000000" font-family="sans-serif" font-size="14" lengthAdjust="spacing" textLength="3.64" x="632.8894" y="72.1018">&#160;</text><text fill="#000000" filter="url(#b1nvzx7m6zv5li1)" font-family="sans-serif" font-size="14" lengthAdjust="spacing" textLength="29.1199" x="636.5294" y="72.1018">&#160;&#160;&#160;&#160;&#160;&#160;&#160;&#160;</text><text fill="#000000" font-family="sans-serif" font-size="14" lengthAdjust="spacing" textLength="3.64" x="665.6493" y="72.1018">&#160;</text><line style="stroke:#000000;stroke-width:1;" x1="479.128" x2="677.0873" y1="19" y2="19"/><line style="stroke:#000000;stroke-width:1;" x1="479.128" x2="677.0873" y1="38.0679" y2="38.0679"/><line style="stroke:#000000;stroke-width:1;" x1="479.128" x2="677.0873" y1="57.1358" y2="57.1358"/><line style="stroke:#000000;stroke-width:1;" x1="479.128" x2="677.0873" y1="76.2038" y2="76.2038"/><line style="stroke:#000000;stroke-width:1;" x1="479.128" x2="479.128" y1="19" y2="76.2038"/><line style="stroke:#000000;stroke-width:1;" x1="632.8894" x2="632.8894" y1="19" y2="76.2038"/><line style="stroke:#000000;stroke-width:1;" x1="677.0873" x2="677.0873" y1="19" y2="76.2038"/></g><!--entity toks--><g class="entity" data-qualified-name="toks" data-source-line="24" id="ent0001"><rect fill="#546E7A" height="58.1358" rx="6" ry="6" style="stroke:#263238;stroke-width:0.5;" width="182.2453" x="202.2" y="103.2038"/><text fill="#FFFFFF" font-family="sans-serif" font-size="14" font-weight="700" lengthAdjust="spacing" textLength="96.3616" x="245.1418" y="128.1697">Token stream</text><text fill="#FFFFFF" font-family="sans-serif" font-size="14" font-weight="700" lengthAdjust="spacing" textLength="133.1255" x="241.3199" y="147.2376">extbf intro $ x ^ 2 $</text></g><!--entity split--><g class="entity" data-qualified-name="split" data-source-line="25" id="ent0002"><rect fill="#EF6C00" height="77.2038" rx="6" ry="6" style="stroke:#263238;stroke-width:0.5;" width="188.7118" x="198.97" y="221.3338"/><text fill="#FFFFFF" font-family="sans-serif" font-size="14" font-weight="700" lengthAdjust="spacing" textLength="126.8675" x="229.8922" y="246.2997">detect_transitions</text><text fill="#FFFFFF" font-family="sans-serif" font-size="14" font-weight="700" lengthAdjust="spacing" textLength="168.7118" x="208.97" y="265.3676">split at mode changes &#8594;</text><text fill="#FFFFFF" font-family="sans-serif" font-size="14" font-weight="700" lengthAdjust="spacing" textLength="166.0674" x="210.2922" y="284.4355">(start, end, LaTeXMode)</text></g><!--entity rc--><g class="entity" data-qualified-name="rc" data-source-line="27" id="ent0003"><rect fill="#EF6C00" height="58.1358" rx="6" ry="6" style="stroke:#263238;stroke-width:0.5;" width="144.4455" x="55.1" y="358.5438"/><text fill="#FFFFFF" font-family="sans-serif" font-size="14" font-weight="700" lengthAdjust="spacing" textLength="124.4455" x="65.1" y="383.5097">region: Command</text><text fill="#FFFFFF" font-family="sans-serif" font-size="14" font-weight="700" lengthAdjust="spacing" textLength="81.9277" x="86.3589" y="402.5776">tokens[0..k)</text></g><!--entity rt--><g class="entity" data-qualified-name="rt" data-source-line="28" id="ent0004"><rect fill="#EF6C00" height="58.1358" rx="6" ry="6" style="stroke:#263238;stroke-width:0.5;" width="107.5697" x="239.54" y="358.5438"/><text fill="#FFFFFF" font-family="sans-serif" font-size="14" font-weight="700" lengthAdjust="spacing" textLength="83.6777" x="251.486" y="383.5097">region: Text</text><text fill="#FFFFFF" font-family="sans-serif" font-size="14" font-weight="700" lengthAdjust="spacing" textLength="87.5697" x="249.54" y="402.5776">tokens[k..m)</text></g><!--entity rm--><g class="entity" data-qualified-name="rm" data-source-line="29" id="ent0005"><rect fill="#EF6C00" height="58.1358" rx="6" ry="6" style="stroke:#263238;stroke-width:0.5;" width="109.8377" x="395.41" y="358.5438"/><text fill="#FFFFFF" font-family="sans-serif" font-size="14" font-weight="700" lengthAdjust="spacing" textLength="89.8377" x="405.41" y="383.5097">region: Math</text><text fill="#FFFFFF" font-family="sans-serif" font-size="14" font-weight="700" lengthAdjust="spacing" textLength="87.9897" x="406.334" y="402.5776">tokens[m..n)</text></g><!--entity mc--><g class="entity" data-qualified-name="mc" data-source-line="31" id="ent0006"><rect fill="#1565C0" height="58.1358" rx="6" ry="6" style="stroke:#263238;stroke-width:0.5;" width="139.1395" x="51.76" y="476.6738"/><text fill="#FFFFFF" font-family="sans-serif" font-size="14" font-weight="700" lengthAdjust="spacing" textLength="119.1395" x="61.76" y="501.6397">command_model</text><text fill="#FFFFFF" font-family="sans-serif" font-size="14" font-weight="700" lengthAdjust="spacing" textLength="114.8985" x="63.8805" y="520.7076">NgramModel&#10216;D&#10217;</text></g><!--entity mt--><g class="entity" data-qualified-name="mt" data-source-line="32" id="ent0007"><rect fill="#1565C0" height="58.1358" rx="6" ry="6" style="stroke:#263238;stroke-width:0.5;" width="134.8985" x="225.88" y="476.6738"/><text fill="#FFFFFF" font-family="sans-serif" font-size="14" font-weight="700" lengthAdjust="spacing" textLength="78.1337" x="254.2624" y="501.6397">text_model</text><text fill="#FFFFFF" font-family="sans-serif" font-size="14" font-weight="700" lengthAdjust="spacing" textLength="114.8985" x="235.88" y="520.7076">NgramModel&#10216;D&#10217;</text></g><!--entity mm--><g class="entity" data-qualified-name="mm" data-source-line="33" id="ent0008"><rect fill="#1565C0" height="58.1358" rx="6" ry="6" style="stroke:#263238;stroke-width:0.5;" width="134.8985" x="395.88" y="476.6738"/><text fill="#FFFFFF" font-family="sans-serif" font-size="14" font-weight="700" lengthAdjust="spacing" textLength="86.7437" x="419.9574" y="501.6397">math_model</text><text fill="#FFFFFF" font-family="sans-serif" font-size="14" font-weight="700" lengthAdjust="spacing" textLength="114.8985" x="405.88" y="520.7076">NgramModel&#10216;D&#10217;</text></g><!--entity fuse--><g class="entity" data-qualified-name="fuse" data-source-line="35" id="ent0009"><rect fill="#1565C0" height="77.2038" rx="6" ry="6" style="stroke:#263238;stroke-width:0.5;" width="163.6115" x="211.52" y="596.6238"/><text fill="#FFFFFF" font-family="sans-serif" font-size="14" font-weight="700" lengthAdjust="spacing" textLength="99.3016" x="243.6749" y="621.5897">weighted fuse</text><text fill="#FFFFFF" font-family="sans-serif" font-size="14" font-weight="700" lengthAdjust="spacing" textLength="143.6115" x="221.52" y="640.6576">&#931; w&#8344;&#183;s&#8344; over regions</text><text fill="#FFFFFF" font-family="sans-serif" font-size="14" font-weight="700" lengthAdjust="spacing" textLength="96.4876" x="245.0819" y="659.7255">&#247; &#931; w&#8344;&#183;len &#215; N</text></g><!--entity out--><g class="entity" data-qualified-name="out" data-source-line="36" id="ent0010"><rect fill="#455A64" height="58.1358" rx="6" ry="6" style="stroke:#263238;stroke-width:0.5;" width="148.9675" x="218.84" y="735.6338"/><text fill="#FFFFFF" font-family="sans-serif" font-size="14" font-weight="700" lengthAdjust="spacing" textLength="128.9675" x="228.84" y="760.5997">sequence log-prob</text><text fill="#FFFFFF" font-family="sans-serif" font-size="14" font-weight="700" lengthAdjust="spacing" textLength="30.9259" x="277.8608" y="779.6676">(f64)</text></g><g class="entity" data-qualified-name="GMN22" data-source-line="51" id="ent0023"><path d="M410.56,594.8138 L410.56,630.7738 L375.41,634.7738 L410.56,638.7738 L410.56,675.6378 A0,0 0 0 0 410.56,675.6378 L686.0873,675.6378 A0,0 0 0 0 686.0873,675.6378 L686.0873,604.8138 L676.0873,594.8138 L410.56,594.8138 A0,0 0 0 0 410.56,594.8138" fill="#FEFFDD" style="stroke:#181818;stroke-width:0.5;"/><path d="M676.0873,594.8138 L676.0873,604.8138 L686.0873,604.8138 L676.0873,594.8138" fill="#FEFFDD" style="stroke:#181818;stroke-width:0.5;"/><text fill="#000000" font-family="sans-serif" font-size="13" lengthAdjust="spacing" textLength="254.5273" x="416.56" y="613.7108">Weights w&#8344; = LaTeXMode::weight(config).</text><text fill="#000000" font-family="sans-serif" font-size="13" lengthAdjust="spacing" textLength="210.2622" x="438.6925" y="631.4168">Math is up-weighted (2.0): formula</text><text fill="#000000" font-family="sans-serif" font-size="13" lengthAdjust="spacing" textLength="216.6192" x="435.514" y="649.1228">fluency is the strongest correctness</text><text fill="#000000" font-family="sans-serif" font-size="13" lengthAdjust="spacing" textLength="166.2312" x="460.7081" y="666.8288">signal for LaTeX correction.</text></g><!--link toks to split--><g class="link" data-entity-1="ent0001" data-entity-2="ent0002" data-link-type="dependency" data-source-line="38" id="lnk11"><path d="M293.33,161.5638 C293.33,179.2338 293.33,196.9538 293.33,216.1038" fill="none" id="toks-to-split" style="stroke:#37474F;stroke-width:1;"/><polygon fill="#37474F" points="293.33,221.1038,297.33,212.1038,293.33,216.1038,289.33,212.1038,293.33,221.1038" style="stroke:#37474F;stroke-width:1;stroke-linejoin:miter;stroke-miterlimit:10;"/></g><!--link split to rc--><g class="link" data-entity-1="ent0002" data-entity-2="ent0003" data-link-type="dependency" data-source-line="39" id="lnk12"><path d="M205.54,298.9938 C205.54,336.5838 205.54,387.7738 205.54,387.7738 C205.54,387.7738 208.43,387.7738 204.91,387.7738" fill="none" id="split-to-rc" style="stroke:#37474F;stroke-width:1;"/><polygon fill="#37474F" points="199.91,387.7738,208.91,391.7738,204.91,387.7738,208.91,383.7738,199.91,387.7738" style="stroke:#37474F;stroke-width:1;stroke-linejoin:miter;stroke-miterlimit:10;"/></g><!--link split to rt--><g class="link" data-entity-1="ent0002" data-entity-2="ent0004" data-link-type="dependency" data-source-line="40" id="lnk13"><path d="M293.33,298.9438 C293.33,318.0038 293.33,335.5738 293.33,353.1738" fill="none" id="split-to-rt" style="stroke:#37474F;stroke-width:1;"/><polygon fill="#37474F" points="293.33,358.1738,297.33,349.1738,293.33,353.1738,289.33,349.1738,293.33,358.1738" style="stroke:#37474F;stroke-width:1;stroke-linejoin:miter;stroke-miterlimit:10;"/></g><!--link split to rm--><g class="link" data-entity-1="ent0002" data-entity-2="ent0005" data-link-type="dependency" data-source-line="41" id="lnk14"><path d="M381.41,298.9938 C381.41,336.5838 381.41,387.7738 381.41,387.7738 C381.41,387.7738 382.01,387.7738 390.02,387.7738" fill="none" id="split-to-rm" style="stroke:#37474F;stroke-width:1;"/><polygon fill="#37474F" points="395.02,387.7738,386.02,383.7738,390.02,387.7738,386.02,391.7738,395.02,387.7738" style="stroke:#37474F;stroke-width:1;stroke-linejoin:miter;stroke-miterlimit:10;"/></g><!--link rc to mc--><g class="link" data-entity-1="ent0003" data-entity-2="ent0006" data-link-type="dependency" data-source-line="42" id="lnk15"><path d="M123,417.1138 C123,435.1538 123,453.1538 123,471.2038" fill="none" id="rc-to-mc" style="stroke:#37474F;stroke-width:1;"/><polygon fill="#37474F" points="123,476.2038,127,467.2038,123,471.2038,119,467.2038,123,476.2038" style="stroke:#37474F;stroke-width:1;stroke-linejoin:miter;stroke-miterlimit:10;"/><text fill="#000000" font-family="sans-serif" font-size="13" lengthAdjust="spacing" textLength="115.2061" x="7" y="442.5608">sentence_log_prob</text></g><!--link rt to mt--><g class="link" data-entity-1="ent0004" data-entity-2="ent0007" data-link-type="dependency" data-source-line="43" id="lnk16"><path d="M293.33,417.1138 C293.33,435.1538 293.33,453.1538 293.33,471.2038" fill="none" id="rt-to-mt" style="stroke:#37474F;stroke-width:1;"/><polygon fill="#37474F" points="293.33,476.2038,297.33,467.2038,293.33,471.2038,289.33,467.2038,293.33,476.2038" style="stroke:#37474F;stroke-width:1;stroke-linejoin:miter;stroke-miterlimit:10;"/><text fill="#000000" font-family="sans-serif" font-size="13" lengthAdjust="spacing" textLength="115.2061" x="177.33" y="442.5608">sentence_log_prob</text></g><!--link rm to mm--><g class="link" data-entity-1="ent0005" data-entity-2="ent0008" data-link-type="dependency" data-source-line="44" id="lnk17"><path d="M450.56,417.1138 C450.56,435.1538 450.56,453.1538 450.56,471.2038" fill="none" id="rm-to-mm" style="stroke:#37474F;stroke-width:1;"/><polygon fill="#37474F" points="450.56,476.2038,454.56,467.2038,450.56,471.2038,446.56,467.2038,450.56,476.2038" style="stroke:#37474F;stroke-width:1;stroke-linejoin:miter;stroke-miterlimit:10;"/><text fill="#000000" font-family="sans-serif" font-size="13" lengthAdjust="spacing" textLength="115.2061" x="334.56" y="442.5608">sentence_log_prob</text></g><!--link mc to fuse--><g class="link" data-entity-1="ent0006" data-entity-2="ent0009" data-link-type="dependency" data-source-line="45" id="lnk18"><path d="M191.32,505.7738 C206.8,505.7738 218.7,505.7738 218.7,505.7738 C218.7,505.7738 218.7,553.2538 218.7,591.3838" fill="none" id="mc-to-fuse" style="stroke:#37474F;stroke-width:1;"/><polygon fill="#37474F" points="218.7,596.3838,222.7,587.3838,218.7,591.3838,214.7,587.3838,218.7,596.3838" style="stroke:#37474F;stroke-width:1;stroke-linejoin:miter;stroke-miterlimit:10;"/><text fill="#000000" font-family="sans-serif" font-size="13" lengthAdjust="spacing" textLength="141.6871" x="76.7" y="552.2808">&#215; command_weight 1.5</text></g><!--link mt to fuse--><g class="link" data-entity-1="ent0007" data-entity-2="ent0009" data-link-type="dependency" data-source-line="46" id="lnk19"><path d="M293.33,535.1238 C293.33,553.1838 293.33,571.5338 293.33,591.1438" fill="none" id="mt-to-fuse" style="stroke:#37474F;stroke-width:1;"/><polygon fill="#37474F" points="293.33,596.1438,297.33,587.1438,293.33,591.1438,289.33,587.1438,293.33,596.1438" style="stroke:#37474F;stroke-width:1;stroke-linejoin:miter;stroke-miterlimit:10;"/><text fill="#000000" font-family="sans-serif" font-size="13" lengthAdjust="spacing" textLength="103.5451" x="189.33" y="580.5308">&#215; text_weight 1.0</text></g><!--link mm to fuse--><g class="link" data-entity-1="ent0008" data-entity-2="ent0009" data-link-type="dependency" data-source-line="47" id="lnk20"><path d="M395.54,505.7738 C380.01,505.7738 367.95,505.7738 367.95,505.7738 C367.95,505.7738 367.95,553.2538 367.95,591.3838" fill="none" id="mm-to-fuse" style="stroke:#37474F;stroke-width:1;"/><polygon fill="#37474F" points="367.95,596.3838,371.95,587.3838,367.95,591.3838,363.95,587.3838,367.95,596.3838" style="stroke:#37474F;stroke-width:1;stroke-linejoin:miter;stroke-miterlimit:10;"/><text fill="#000000" font-family="sans-serif" font-size="13" lengthAdjust="spacing" textLength="112.1251" x="254.95" y="552.1808">&#215; math_weight 2.0</text></g><!--link fuse to out--><g class="link" data-entity-1="ent0009" data-entity-2="ent0010" data-link-type="dependency" data-source-line="48" id="lnk21"><path d="M293.33,674.0738 C293.33,693.7438 293.33,712.2238 293.33,730.3538" fill="none" id="fuse-to-out" style="stroke:#37474F;stroke-width:1;"/><polygon fill="#37474F" points="293.33,735.3538,297.33,726.3538,293.33,730.3538,289.33,726.3538,293.33,735.3538" style="stroke:#37474F;stroke-width:1;stroke-linejoin:miter;stroke-miterlimit:10;"/></g><?plantuml-src XLNDRjj64BxlKmpY0B4DYxPbIIw8n83gHgSaXyP02bIeiI9N9A7zONU7beswbnpo0BqajnnwQPuWz-RUX_2JT8RBo4mgD18WY3lppNmxtypm4JntkHe4LKilKULW1uMN1aBcV6MB57A5AiDBzDA62Yjd0sJINwa0M2f0jr8M0df5cCgY4u-WTCOLoYhN1F2gOCW1UDSWOPJCIW91XG4C9TO786qEooQeU31OgweecOXsnQ3sRX4IYlcZihdoATHQMcoCXW66gm9obuN3l99CEHngki3rmFB3W6E5f2PNGhzqZSyKk2MWRx24fVCmguh6ApWcrZ5CvapjhBBO1Jfi0oKc5s5LMIwFWONCLWLTnURdJbEGdTcKlpsFKChShQboi9Gwg9ubLqlPQBnGrpZLLM4DfOACVfJlUUdAAhofYQp7qlKCdbIGjj0AVXC0CsSnKbYN5Qhkv2NUa7tXT4u7tpjF9Uju3YSdmvFlwBGZxwtoS3mKl_SoJBrtwyx_v7HqEfe9T3MhjN28ZcvGCGdIKmYjIE4SsEvPBt7x1CwTpLIDqFxbABVY5fx92_LJgspR0boOMtZCTKntdiucvqT7Pz1z7X_oyLaB2oYn2bXbKd_kI6f8TOyz7a_6vzkmH2kI4-A-P0ykUdqwj_CvwOkB9NUiT_0Ghk4N6CB31o03jtI0dV5eylHqsW-nl__VKTZVdzjGwmf1OhnaLf8xzVBTcp_cTfUkuV40YCr1h0GFsrwR9iAw6dp1DSvCIaKqXePZRjiX2pyV9SagOdss0Mx1SOTjGAiaCHq8_m_qN6Av0PaaiHt8RAMOHMgNxGZFxGiMYA-cxzx_zSFT-myjrX3BA5CVofN_1WwtuGmH_0RER71zu6QXy9APst_-XFNTwtT_Vmpq2-wAvg1RKdFxwIDip9hwvTDRUD66PkWsKa7zsYZg-iso8isNar6i7RKxx8p6u-ba94JRLOF1MTHTHFNvsMVzXoyiHf3G_8ygcKBWLK6vBYdN9USIFlfHlRPQJRIQhLOJ8xSNI_cYdoMDvOBZP2mCVkNJQhTnE1B6VENGYjGv3CcXjR0BrK88wr35TS6hc6sqa5wrtg6jEZovdv8qZN5sCsUNLR6Na2ytALG1clh-DR5BUVPINkccqPASbfebkM4_VaFHp3kUIEG5mj9P5GAv1Lh1j5puLH1tL6UcJaXuYG2p_HS0?></g></svg>